# xmcd CD database file
#
# Track frame offsets:
#	150
#	29814
#	71695
#	111072
#	163161
#	193060
#	238826
#
# Disc length: 3975 seconds
#
# Revision: 1
# Processed by: cddbd v1.5.2PL0 Copyright (c) Steve Scherf et al.
# Submitted via: CDex 1.70beta2
#
DISCID=660f8507
DTITLE=Kurt Rosenwinkel and Orchestra Jazz De Matosinhos - Our Secret World
DYEAR=2010
DGENRE=Jazz
TTITLE0=Our Secret World
TTITLE1=The Cloister
TTITLE2=Zhivago
TTITLE3=Dream Of The Old
TTITLE4=Turns
TTITLE5=Use Of Light
TTITLE6=Path Of The Heart
EXTD=YEAR: 2010
EXTT0=
EXTT1=
EXTT2=
EXTT3=
EXTT4=
EXTT5=
EXTT6=
PLAYORDER=
